<?xml version="1.0" encoding="UTF-8"?>
<svg xmlns="http://www.w3.org/2000/svg" viewBox="0 0 225 225">
  <path fill="#ffffff" d="M119.79,134.74c-6.85-4.34-13.39-9.15-20.1-13.71l-.03-56.26c-.04-.24-.18-.47-.32-.67-.63-.86-2.01-2.17-2.8-3.03-1.44-1.55-2.93-3.11-4.51-4.51h-39.85v81.79h41.39c.12,0,.5.19.68.2l26.14,16.73-.06-16.93h48.59V56.58h-44.53l1.76-2.36c4.79-5.38,8.93-11.37,13.63-16.82.19-.22.67-.83.93-.83h48.32v121.92h-48.32l-.44,36.06c-.29,0-4.28-2.74-4.88-3.14-13.74-9.3-27.43-18.67-41.16-27.99-1.08-.73-6.74-4.93-7.5-4.93H31.95l.11-121.92c21.46-.09,42.92.12,64.38,0,.74,0,1.5-.14,2.31-.12.41.01,1.51.06,1.84.14s1.62,1.44,1.95,1.79c4.66,4.94,9.41,9.8,14.07,14.74.62.65,2.66,2.39,2.98,2.96.05.09.21.71.21.78v77.89Z"/>
</svg>