<svg width="1600" height="900" viewBox="0 0 1600 900" fill="none" xmlns="http://www.w3.org/2000/svg">
  <rect width="1600" height="900" fill="#F4F1EB"/>
  <rect x="52" y="52" width="1496" height="796" rx="28" fill="#101010"/>
  <rect x="96" y="96" width="420" height="708" rx="22" fill="#1D1D1D"/>
  <rect x="540" y="96" width="964" height="708" rx="22" fill="#FBF8F2"/>
  <text x="150" y="170" fill="#FBF8F2" font-family="Arial, sans-serif" font-size="34" font-weight="700">
    API Reference
  </text>
  <rect x="150" y="220" width="300" height="26" rx="13" fill="#C8A96B"/>
  <rect x="150" y="272" width="250" height="26" rx="13" fill="#C8A96B" fill-opacity="0.8"/>
  <rect x="150" y="324" width="280" height="26" rx="13" fill="#C8A96B" fill-opacity="0.65"/>
  <rect x="588" y="146" width="320" height="44" rx="14" fill="#E9DFC9"/>
  <rect x="588" y="222" width="868" height="30" rx="15" fill="#E9DFC9"/>
  <rect x="588" y="282" width="868" height="30" rx="15" fill="#E9DFC9"/>
  <rect x="588" y="342" width="868" height="30" rx="15" fill="#E9DFC9"/>
  <rect x="588" y="430" width="420" height="260" rx="20" fill="#111111"/>
  <rect x="1036" y="430" width="420" height="260" rx="20" fill="#EEE5D6"/>
  <text x="650" y="540" fill="#FBF8F2" font-family="Arial, sans-serif" font-size="34" font-weight="700">
    Replace with
  </text>
  <text x="650" y="590" fill="#FBF8F2" font-family="Arial, sans-serif" font-size="34" font-weight="700">
    Scalar docs
  </text>
  <text x="650" y="640" fill="#FBF8F2" font-family="Arial, sans-serif" font-size="34" font-weight="700">
    screenshot
  </text>
  <text x="588" y="760" fill="#5F5648" font-family="Arial, sans-serif" font-size="26">
    Suggested capture: expanded tags, auth flow, and endpoint examples.
  </text>
</svg>
